<?xml version="1.0" encoding="utf-8"?>
<!-- Generator: Adobe Illustrator 23.0.5, SVG Export Plug-In . SVG Version: 6.00 Build 0)  -->
<svg version="1.1" id="Layer_1" xmlns="http://www.w3.org/2000/svg" xmlns:xlink="http://www.w3.org/1999/xlink" x="0px" y="0px"
	 viewBox="0 0 497.77 97.26" style="enable-background:new 0 0 497.77 97.26;" xml:space="preserve">
<style type="text/css">
	.st0{fill:#FFFFFF;}
	.st1{fill:#1DBF73;}
</style>
<g>
	<path d="M45.98,57.05c4.65,1.53,9.66-1,11.19-5.64c1.53-4.65-1-9.66-5.64-11.19c-4.65-1.53-9.66,1-11.19,5.64
		C38.81,50.5,41.34,55.51,45.98,57.05"/>
	<path d="M74.42,7.52c-2.91,8.84-10.16,14.39-16.2,12.4c-6.04-1.99-8.57-10.77-5.66-19.6c0.04-0.11,0.07-0.22,0.11-0.32
		c-0.85,1.46-1.58,3.07-2.15,4.81c-3.05,9.25-0.39,18.43,5.92,20.52c6.32,2.08,13.91-3.73,16.96-12.98
		c0.57-1.73,0.94-3.46,1.12-5.15C74.49,7.31,74.45,7.42,74.42,7.52"/>
	<path d="M29.66,9.15c-1.21-1.36-2.53-2.55-3.89-3.55c0.08,0.08,0.15,0.17,0.23,0.25c6.2,6.94,7.38,16,2.64,20.23
		c-4.74,4.24-13.61,2.04-19.8-4.9c-0.08-0.08-0.15-0.17-0.22-0.26c0.84,1.47,1.87,2.91,3.09,4.27c6.49,7.26,15.77,9.56,20.73,5.13
		C37.38,25.89,36.14,16.41,29.66,9.15"/>
	<path d="M5.02,45.43C3.23,45.8,1.55,46.35,0,47.03c0.11-0.03,0.22-0.05,0.33-0.07c9.11-1.9,17.54,1.61,18.84,7.83
		c1.3,6.22-5.04,12.8-14.15,14.7c-0.11,0.02-0.22,0.05-0.33,0.07c1.69,0.01,3.45-0.17,5.24-0.54c9.53-1.99,16.16-8.88,14.8-15.39
		C23.38,47.12,14.55,43.45,5.02,45.43"/>
	<path d="M41.08,71.93c-6.32-2.08-13.91,3.73-16.96,12.98c-0.57,1.73-0.94,3.46-1.12,5.14c0.03-0.11,0.07-0.22,0.1-0.32
		c2.91-8.84,10.16-14.39,16.2-12.4c6.04,1.99,8.57,10.77,5.66,19.6c-0.04,0.11-0.07,0.21-0.11,0.32c0.85-1.46,1.58-3.07,2.15-4.81
		C50.05,83.2,47.4,74.02,41.08,71.93"/>
	<path d="M65.1,66.93c-4.96,4.43-3.73,13.91,2.76,21.17c1.21,1.36,2.53,2.55,3.89,3.55c-0.08-0.08-0.15-0.17-0.23-0.25
		c-6.2-6.94-7.38-16-2.64-20.23c4.74-4.23,13.61-2.04,19.8,4.9c0.08,0.08,0.15,0.17,0.22,0.26c-0.84-1.47-1.87-2.91-3.09-4.27
		C79.34,64.8,70.06,62.5,65.1,66.93"/>
	<path d="M92.5,51.82c1.78-0.37,3.47-0.92,5.02-1.6c-0.11,0.03-0.22,0.05-0.33,0.07c-9.11,1.9-17.54-1.61-18.84-7.83
		c-1.3-6.22,5.04-12.8,14.15-14.7c0.11-0.02,0.22-0.05,0.33-0.07c-1.69-0.01-3.45,0.17-5.24,0.54c-9.53,1.99-16.16,8.88-14.8,15.39
		C74.14,50.14,82.97,53.81,92.5,51.82"/>
	<path d="M121.7,69.74c0,1.16-0.41,2.14-1.24,2.93c-0.82,0.82-1.8,1.24-2.93,1.24h-0.14c-1.13,0-2.11-0.41-2.93-1.24
		c-0.82-0.79-1.24-1.77-1.24-2.93V44.68c0-5.74,2.03-10.64,6.09-14.7c4.06-4.06,8.96-6.09,14.7-6.09c5.71,0,10.6,2.03,14.66,6.09
		c4.06,4.06,6.09,8.96,6.09,14.7v25.06c0,1.16-0.41,2.14-1.24,2.93c-0.79,0.82-1.77,1.24-2.93,1.24h-0.09
		c-1.16,0-2.15-0.41-2.98-1.24c-0.82-0.79-1.24-1.77-1.24-2.93V44.68c0-3.39-1.19-6.29-3.57-8.7c-2.41-2.41-5.31-3.62-8.7-3.62
		c-3.42,0-6.34,1.21-8.75,3.62c-2.38,2.41-3.57,5.31-3.57,8.7V69.74z"/>
	<path d="M210.29,38.5c0.49,1.04,0.53,2.11,0.14,3.21c-0.4,1.07-1.13,1.85-2.2,2.34c-4.28,1.92-9.89,4.46-16.86,7.6
		c-8.64,3.91-14.25,6.44-16.81,7.6c3.3,4.21,7.63,6.32,13.01,6.32c3.57,0,6.81-1.05,9.71-3.16c2.81-2.05,4.78-4.7,5.91-7.97
		c0.67-1.89,2.02-2.84,4.03-2.84c1.43,0,2.58,0.6,3.44,1.79c0.82,1.16,0.99,2.43,0.5,3.8c-1.71,4.95-4.7,8.95-8.98,12
		c-4.37,3.15-9.24,4.72-14.61,4.72c-6.9,0-12.8-2.44-17.68-7.33c-4.89-4.89-7.33-10.78-7.33-17.68c0-6.9,2.44-12.8,7.33-17.68
		c4.89-4.89,10.78-7.33,17.68-7.33c4.98,0,9.53,1.36,13.65,4.08C205.28,30.62,208.3,34.13,210.29,38.5 M187.57,32.45
		c-4.58,0-8.49,1.62-11.73,4.86c-3.21,3.24-4.81,7.15-4.81,11.73c0,0.82,0.06,1.63,0.18,2.43l29-13.1
		C196.91,34.42,192.7,32.45,187.57,32.45"/>
	<path d="M239.51,62.13c0-0.03,0.06,0.09,0.18,0.37c0.18,0.46,0.4,0.46,0.64,0l0.09-0.27l15.35-35.78c0.73-1.71,2.02-2.56,3.85-2.56
		h0.09c1.5,0,2.66,0.63,3.48,1.88c0.82,1.25,0.95,2.56,0.37,3.94l-17.04,39.76c-1.16,2.96-3.33,4.44-6.5,4.44
		c-3.21,0-5.39-1.48-6.55-4.44L216.43,29.7c-0.58-1.37-0.46-2.69,0.37-3.94c0.82-1.25,1.98-1.88,3.48-1.88h0.14
		c1.83,0,3.1,0.85,3.8,2.56C231.54,43.52,236.64,55.42,239.51,62.13"/>
	<path d="M290.91,23.89c1.16,0,2.15,0.41,2.98,1.24c0.79,0.82,1.19,1.82,1.19,2.98v0.09c0,1.16-0.4,2.14-1.19,2.93
		c-0.82,0.82-1.82,1.24-2.98,1.24h-2.61c-2.87,0-5.31,1.01-7.33,3.02c-1.99,2.02-2.99,4.46-3.02,7.33v27.03
		c0,1.16-0.41,2.14-1.24,2.93c-0.82,0.82-1.8,1.24-2.93,1.24h-0.14c-1.13,0-2.11-0.41-2.93-1.24c-0.82-0.79-1.24-1.77-1.24-2.93
		V42.71c0.06-5.22,1.89-9.66,5.5-13.33c3.67-3.66,8.11-5.5,13.33-5.5H290.91z"/>
	<path d="M323.75,23.89c6.9,0,12.79,2.44,17.68,7.33c4.89,4.89,7.33,10.78,7.33,17.68c0,6.9-2.44,12.8-7.33,17.68
		c-4.89,4.89-10.78,7.33-17.68,7.33c-6.9,0-12.8-2.44-17.68-7.33c-4.89-4.89-7.33-10.78-7.33-17.68c0-6.9,2.44-12.8,7.33-17.68
		C310.96,26.33,316.85,23.89,323.75,23.89 M323.75,32.45c-4.58,0-8.49,1.62-11.73,4.86c-3.21,3.24-4.81,7.15-4.81,11.73
		c0,4.55,1.6,8.44,4.81,11.68c3.24,3.24,7.15,4.86,11.73,4.86c4.58,0,8.47-1.62,11.68-4.86c3.24-3.24,4.86-7.13,4.86-11.68
		c0-4.58-1.62-8.49-4.86-11.73C332.22,34.07,328.33,32.45,323.75,32.45"/>
	<path d="M365.02,69.74c0,1.16-0.41,2.14-1.24,2.93c-0.82,0.82-1.8,1.24-2.93,1.24h-0.14c-1.13,0-2.11-0.41-2.93-1.24
		c-0.82-0.79-1.24-1.77-1.24-2.93V44.68c0-5.74,2.03-10.64,6.09-14.7c4.06-4.06,8.96-6.09,14.7-6.09c5.71,0,10.6,2.03,14.66,6.09
		c4.06,4.06,6.09,8.96,6.09,14.7v25.06c0,1.16-0.41,2.14-1.24,2.93c-0.79,0.82-1.77,1.24-2.93,1.24h-0.09
		c-1.16,0-2.15-0.41-2.98-1.24c-0.82-0.79-1.24-1.77-1.24-2.93V44.68c0-3.39-1.19-6.29-3.57-8.7c-2.41-2.41-5.31-3.62-8.7-3.62
		c-3.42,0-6.34,1.21-8.75,3.62c-2.38,2.41-3.57,5.31-3.57,8.7V69.74z"/>
	<path d="M412.89,74.91c-1.4,0-2.6-0.5-3.6-1.51c-0.99-1.01-1.49-2.21-1.49-3.62c0-1.4,0.5-2.62,1.49-3.64
		c0.99-1.02,2.19-1.53,3.6-1.53c1.43,0,2.66,0.51,3.66,1.53c1.01,1.02,1.51,2.24,1.51,3.64c0,1.4-0.5,2.61-1.51,3.62
		C415.55,74.41,414.32,74.91,412.89,74.91"/>
	<path d="M470.28,31.21c4.89,4.89,7.33,10.78,7.33,17.68v20.84c0,1.16-0.41,2.14-1.24,2.93c-0.82,0.82-1.8,1.24-2.93,1.24h-0.14
		c-1.13,0-2.11-0.41-2.93-1.24c-0.82-0.79-1.24-1.77-1.24-2.93v-2.11c-4.73,4.18-10.25,6.27-16.54,6.27c-6.9,0-12.8-2.44-17.68-7.33
		c-4.89-4.89-7.33-10.78-7.33-17.68c0-6.9,2.44-12.8,7.33-17.68c4.89-4.88,10.78-7.33,17.68-7.33
		C459.5,23.89,465.4,26.33,470.28,31.21 M440.88,37.22c-3.21,3.24-4.81,7.13-4.81,11.68c0,4.58,1.6,8.49,4.81,11.73
		c3.24,3.21,7.15,4.81,11.73,4.81c4.58,0,8.47-1.6,11.68-4.81c3.24-3.24,4.86-7.15,4.86-11.73c0-4.55-1.62-8.44-4.86-11.68
		c-3.21-3.24-7.1-4.86-11.68-4.86C448.02,32.36,444.11,33.98,440.88,37.22"/>
	<path d="M492.73,15.18c-1.4,0-2.6-0.49-3.57-1.47c-0.98-0.98-1.47-2.17-1.47-3.57c0-1.37,0.49-2.55,1.47-3.53
		c0.98-0.98,2.17-1.47,3.57-1.47c1.37,0,2.55,0.49,3.53,1.47c1.01,0.98,1.51,2.15,1.51,3.53c0,1.4-0.5,2.6-1.51,3.57
		C495.28,14.7,494.1,15.18,492.73,15.18 M492.78,23.89c1.16,0,2.14,0.41,2.93,1.24c0.82,0.82,1.24,1.82,1.24,2.98v41.64
		c0,1.16-0.41,2.14-1.24,2.93c-0.79,0.82-1.77,1.24-2.93,1.24h-0.09c-1.16,0-2.15-0.41-2.98-1.24c-0.82-0.79-1.24-1.77-1.24-2.93
		V28.1c0-1.16,0.41-2.15,1.24-2.98c0.82-0.82,1.82-1.24,2.98-1.24H492.78z"/>
</g>
</svg>
